
<svg
  xmlns="http://www.w3.org/2000/svg"
  viewBox="0 0 24 24"
  width="24"
  height="24"
>
  <circle cx="12" cy="12" r="12" fill="#4b4bd8" />
  <path d="M9.364 9.856V16H6.712V9.856H4V7.744H12.064V9.856H9.364Z" fill="#d4d4d8" />
  <path
    d="M16.768 7.744c.416 0 .796.088 1.14.264.352.168.628.408.828.72.208.312.312.66.312 1.044 0 1.016-.46 1.656-1.38 1.92v.048c1.048.24 1.572.928 1.572 2.064 0 .432-.108.816-.324 1.152-.208.328-.496.584-.864.768-.368.184-.772.276-1.212.276h-5.568V7.744h5.496ZM13.924 10.96h1.824c.176 0 .32-.06.432-.18.12-.128.18-.284.18-.468v-.12c0-.176-.06-.324-.18-.444-.12-.128-.264-.192-.432-.192h-1.824v1.404ZM13.924 14.08h2.016c.176 0 .32-.06.432-.18.12-.128.18-.284.18-.468v-.12c0-.176-.06-.328-.18-.448-.112-.12-.256-.184-.432-.184h-2.016v1.404Z"
    fill="#d4d4d8"
  />
</svg>
